<?xml version="1.0" encoding="utf-8" standalone="no"?>
<!DOCTYPE svg PUBLIC "-//W3C//DTD SVG 1.1//EN"
  "http://www.w3.org/Graphics/SVG/1.1/DTD/svg11.dtd">
<svg xmlns:xlink="http://www.w3.org/1999/xlink" width="460.8pt" height="345.6pt" viewBox="0 0 460.8 345.6" xmlns="http://www.w3.org/2000/svg" version="1.1">
 <metadata>
  <rdf:RDF xmlns:dc="http://purl.org/dc/elements/1.1/" xmlns:cc="http://creativecommons.org/ns#" xmlns:rdf="http://www.w3.org/1999/02/22-rdf-syntax-ns#">
   <cc:Work>
    <dc:type rdf:resource="http://purl.org/dc/dcmitype/StillImage"/>
    <dc:date>2022-04-27T14:50:25.352592</dc:date>
    <dc:format>image/svg+xml</dc:format>
    <dc:creator>
     <cc:Agent>
      <dc:title>Matplotlib v3.5.0, https://matplotlib.org/</dc:title>
     </cc:Agent>
    </dc:creator>
   </cc:Work>
  </rdf:RDF>
 </metadata>
 <defs>
  <style type="text/css">*{stroke-linejoin: round; stroke-linecap: butt}</style>
 </defs>
 <g id="figure_1">
  <g id="patch_1">
   <path d="M 0 345.6 
L 460.8 345.6 
L 460.8 0 
L 0 0 
L 0 345.6 
z
" style="fill: none"/>
  </g>
  <g id="axes_1">
   <g id="patch_2">
    <path d="M 103.104 307.584 
L 369.216 307.584 
L 369.216 41.472 
L 103.104 41.472 
L 103.104 307.584 
z
" style="fill: none"/>
   </g>
   <g id="Quiver_1">
    <path d="M 202.428203 272.130372 
L 202.177305 267.813337 
L 200.242726 268.925375 
L 202.652447 258.789287 
L 206.22016 268.577977 
L 204.169782 267.697538 
L 204.420681 272.014573 
L 202.428203 272.130372 
" clip-path="url(#p90b9686ee4)" style="fill: #1f77b4"/>
    <path d="M 202.253108 267.004636 
L 202.033302 262.685906 
L 200.090766 263.783985 
L 202.573411 253.665512 
L 206.070546 263.479638 
L 204.026562 262.584457 
L 204.246368 266.903187 
L 202.253108 267.004636 
" clip-path="url(#p90b9686ee4)" style="fill: #1f77b4"/>
    <path d="M 202.051824 260.657798 
L 201.868759 256.337355 
L 199.916954 257.418872 
L 202.485572 247.321881 
L 205.899106 257.165397 
L 203.86281 256.252864 
L 204.045875 260.573307 
L 202.051824 260.657798 
" clip-path="url(#p90b9686ee4)" style="fill: #1f77b4"/>
    <path d="M 201.993304 254.139206 
L 201.851025 249.817227 
L 199.889099 250.880274 
L 202.552902 240.807976 
L 205.873378 250.683273 
L 203.845785 249.75156 
L 203.988064 254.073539 
L 201.993304 254.139206 
" clip-path="url(#p90b9686ee4)" style="fill: #1f77b4"/>
    <path d="M 201.845088 247.495145 
L 201.736591 243.172186 
L 199.766417 244.219868 
L 202.508858 234.168696 
L 205.752052 244.069641 
L 203.731803 243.122111 
L 203.8403 247.445069 
L 201.845088 247.495145 
" clip-path="url(#p90b9686ee4)" style="fill: #1f77b4"/>
    <path d="M 201.693628 240.660813 
L 201.612077 236.337263 
L 199.635411 237.372644 
L 202.440446 227.338761 
L 205.621867 237.259728 
L 203.607562 236.299624 
L 203.689113 240.623175 
L 201.693628 240.660813 
" clip-path="url(#p90b9686ee4)" style="fill: #1f77b4"/>
    <path d="M 201.697435 234.293966 
L 201.64223 229.969998 
L 199.659292 230.993317 
L 202.52541 220.976711 
L 205.646324 230.916878 
L 203.637907 229.944519 
L 203.693113 234.268486 
L 201.697435 234.293966 
" clip-path="url(#p90b9686ee4)" style="fill: #1f77b4"/>
    <path d="M 201.612186 228.287526 
L 201.577393 223.963346 
L 199.589647 224.977292 
L 202.50302 214.974328 
L 205.576973 224.929118 
L 203.573169 223.947288 
L 203.607961 228.271468 
L 201.612186 228.287526 
" clip-path="url(#p90b9686ee4)" style="fill: #1f77b4"/>
    <path d="M 201.714861 221.466781 
L 201.701485 217.142482 
L 199.708741 218.146571 
L 202.671619 208.158159 
L 205.696233 218.12805 
L 203.697315 217.136309 
L 203.710692 221.460608 
L 201.714861 221.466781 
" clip-path="url(#p90b9686ee4)" style="fill: #1f77b4"/>
    <path d="M 201.919208 214.195596 
L 201.926711 209.871283 
L 199.929143 210.865739 
L 202.940212 200.891748 
L 205.916654 210.876127 
L 203.922548 209.874746 
L 203.915045 214.199059 
L 201.919208 214.195596 
" clip-path="url(#p90b9686ee4)" style="fill: #1f77b4"/>
    <path d="M 202.40533 207.625086 
L 202.453312 203.301033 
L 200.446522 204.276746 
L 203.550825 194.331378 
L 206.433673 204.343182 
L 204.449029 203.323178 
L 204.401047 207.647232 
L 202.40533 207.625086 
" clip-path="url(#p90b9686ee4)" style="fill: #1f77b4"/>
    <path d="M 211.035092 202.030246 
L 211.68614 197.755216 
L 209.562808 198.441278 
L 214.024863 189.02655 
L 215.48208 199.342729 
L 213.659231 198.0557 
L 213.008182 202.33073 
L 211.035092 202.030246 
" clip-path="url(#p90b9686ee4)" style="fill: #1f77b4"/>
    <path d="M 219.352698 197.087946 
L 220.639416 192.959497 
L 218.437043 193.318346 
L 224.264551 184.681959 
L 224.153358 195.099956 
L 222.544855 193.553367 
L 221.258136 197.681817 
L 219.352698 197.087946 
" clip-path="url(#p90b9686ee4)" style="fill: #1f77b4"/>
    <path d="M 222.622092 191.205319 
L 224.25155 187.199747 
L 222.026795 187.372053 
L 228.560172 179.256511 
L 227.572973 189.628225 
L 226.100276 187.951805 
L 224.470818 191.957377 
L 222.622092 191.205319 
" clip-path="url(#p90b9686ee4)" style="fill: #1f77b4"/>
    <path d="M 226.329355 185.942772 
L 228.261922 182.07432 
L 226.030505 182.075086 
L 233.168434 174.485817 
L 231.386824 184.750947 
L 230.047361 182.966273 
L 228.114795 186.834726 
L 226.329355 185.942772 
" clip-path="url(#p90b9686ee4)" style="fill: #1f77b4"/>
    <path d="M 229.646728 181.006076 
L 231.761746 177.234281 
L 229.532836 177.128533 
L 237.024891 169.888633 
L 234.755322 180.05702 
L 233.502575 178.210443 
L 231.387556 181.982238 
L 229.646728 181.006076 
" clip-path="url(#p90b9686ee4)" style="fill: #1f77b4"/>
    <path d="M 234.555348 176.229063 
L 237.025576 172.679737 
L 234.817373 172.358707 
L 242.975126 165.878113 
L 239.731825 175.779023 
L 238.663727 173.819843 
L 236.193499 177.369168 
L 234.555348 176.229063 
" clip-path="url(#p90b9686ee4)" style="fill: #1f77b4"/>
    <path d="M 240.018827 171.839249 
L 242.830763 168.554015 
L 240.665593 168.01433 
L 249.429068 162.379746 
L 245.214378 171.907779 
L 244.347025 169.851832 
L 241.535089 173.137065 
L 240.018827 171.839249 
" clip-path="url(#p90b9686ee4)" style="fill: #1f77b4"/>
    <path d="M 244.938435 167.957515 
L 247.971137 164.874909 
L 245.848541 164.186571 
L 254.981197 159.172428 
L 250.116765 168.385698 
L 249.393878 166.274618 
L 246.361176 169.357224 
L 244.938435 167.957515 
" clip-path="url(#p90b9686ee4)" style="fill: #1f77b4"/>
    <path d="M 251.099653 165.490324 
L 254.412507 162.710983 
L 252.36523 161.82336 
L 261.934438 157.703009 
L 256.213549 166.410389 
L 255.69528 164.239993 
L 252.382426 167.019334 
L 251.099653 165.490324 
" clip-path="url(#p90b9686ee4)" style="fill: #1f77b4"/>
    <path d="M 258.702969 165.72377 
L 262.418236 163.51096 
L 260.53957 162.30687 
L 270.64521 159.772493 
L 263.603461 167.451087 
L 263.439533 165.225699 
L 259.724266 167.438509 
L 258.702969 165.72377 
" clip-path="url(#p90b9686ee4)" style="fill: #1f77b4"/>
    <path d="M 265.460757 165.892257 
L 269.46292 164.254444 
L 267.78343 162.785248 
L 278.153062 161.776406 
L 270.051172 168.326705 
L 270.218834 166.101596 
L 266.216672 167.739409 
L 265.460757 165.892257 
" clip-path="url(#p90b9686ee4)" style="fill: #1f77b4"/>
    <path d="M 271.98585 163.540931 
L 276.061451 162.095517 
L 274.453814 160.548028 
L 284.859718 160.034028 
L 276.455156 166.191167 
L 276.728565 163.976564 
L 272.652964 165.421978 
L 271.98585 163.540931 
" clip-path="url(#p90b9686ee4)" style="fill: #1f77b4"/>
    <path d="M 277.14832 161.553163 
L 281.256025 160.201678 
L 279.684331 158.617696 
L 290.099291 158.342681 
L 281.555617 164.305286 
L 281.879787 162.097542 
L 277.772082 163.449026 
L 277.14832 161.553163 
" clip-path="url(#p90b9686ee4)" style="fill: #1f77b4"/>
    <path d="M 282.372594 159.278459 
L 286.503757 158.00048 
L 284.960576 156.388707 
L 295.378785 156.299563 
L 286.730084 162.10878 
L 287.093593 159.907171 
L 282.96243 161.18515 
L 282.372594 159.278459 
" clip-path="url(#p90b9686ee4)" style="fill: #1f77b4"/>
    <path d="M 288.639901 157.632916 
L 292.790193 156.418496 
L 291.271932 154.783227 
L 301.690282 154.854 
L 292.953436 160.529786 
L 293.350695 158.334016 
L 289.200402 159.548436 
L 288.639901 157.632916 
" clip-path="url(#p90b9686ee4)" style="fill: #1f77b4"/>
    <path d="M 295.869959 156.364094 
L 300.026854 155.172472 
L 298.517591 153.528894 
L 308.935396 153.656849 
L 300.167529 159.284596 
L 300.576834 157.091039 
L 296.419938 158.282661 
L 295.869959 156.364094 
" clip-path="url(#p90b9686ee4)" style="fill: #1f77b4"/>
    <path d="M 302.302799 154.941818 
L 306.450013 153.716926 
L 304.927629 152.085495 
L 315.346124 152.129969 
L 306.623633 157.827791 
L 307.015347 155.631025 
L 302.868134 156.855917 
L 302.302799 154.941818 
" clip-path="url(#p90b9686ee4)" style="fill: #1f77b4"/>
    <path d="M 306.316987 145.348034 
L 310.252476 143.555922 
L 308.517157 142.153107 
L 318.839749 140.742033 
L 310.998543 147.602246 
L 311.079604 145.372302 
L 307.144115 147.164414 
L 306.316987 145.348034 
" clip-path="url(#p90b9686ee4)" style="fill: #1f77b4"/>
    <path d="M 310.395937 137.940573 
L 314.090861 135.693957 
L 312.201286 134.507058 
L 322.283383 131.880584 
L 315.311985 139.623106 
L 315.12776 137.399307 
L 311.432837 139.645922 
L 310.395937 137.940573 
" clip-path="url(#p90b9686ee4)" style="fill: #1f77b4"/>
    <path d="M 315.513293 134.28003 
L 319.12013 131.89456 
L 317.186797 130.780359 
L 327.161747 127.77247 
L 320.489755 135.774442 
L 320.221116 133.559255 
L 316.614279 135.944724 
L 315.513293 134.28003 
" clip-path="url(#p90b9686ee4)" style="fill: #1f77b4"/>
    <path d="M 320.350835 129.053089 
L 323.733709 126.35941 
L 321.70981 125.419702 
L 331.381297 121.54551 
L 325.439518 130.103682 
L 324.976945 127.920737 
L 321.594071 130.614415 
L 320.350835 129.053089 
" clip-path="url(#p90b9686ee4)" style="fill: #1f77b4"/>
    <path d="M 324.528315 122.679215 
L 327.556981 119.592644 
L 325.433487 118.907084 
L 334.559574 113.880996 
L 329.707201 123.100622 
L 328.981553 120.99049 
L 325.952886 124.077061 
L 324.528315 122.679215 
" clip-path="url(#p90b9686ee4)" style="fill: #1f77b4"/>
    <path d="M 327.156265 115.219165 
L 329.653723 111.688946 
L 327.448054 111.35094 
L 335.655415 104.933288 
L 332.33605 114.808958 
L 331.283055 112.841619 
L 328.785598 116.371838 
L 327.156265 115.219165 
" clip-path="url(#p90b9686ee4)" style="fill: #1f77b4"/>
    <path d="M 328.505197 108.975127 
L 330.480896 105.128527 
L 328.24961 105.104343 
L 335.47195 97.595359 
L 333.575676 107.839927 
L 332.256251 106.040388 
L 330.280552 109.886989 
L 328.505197 108.975127 
" clip-path="url(#p90b9686ee4)" style="fill: #1f77b4"/>
    <path d="M 329.195104 103.47383 
L 330.706624 99.422283 
L 328.487866 99.659631 
L 334.780909 91.356339 
L 334.097703 101.752505 
L 332.57657 100.119908 
L 331.06505 104.171455 
L 329.195104 103.47383 
" clip-path="url(#p90b9686ee4)" style="fill: #1f77b4"/>
    <path d="M 330.38875 98.826359 
L 331.52142 94.653016 
L 329.333876 95.093324 
L 334.836969 86.246686 
L 335.112353 96.661637 
L 333.447579 95.175787 
L 332.314909 99.34913 
L 330.38875 98.826359 
" clip-path="url(#p90b9686ee4)" style="fill: #1f77b4"/>
    <path d="M 331.490957 94.959966 
L 332.28706 90.709559 
L 330.141617 91.32299 
L 334.921367 82.065505 
L 336.026797 92.425286 
L 334.248786 91.076991 
L 333.452684 95.327398 
L 331.490957 94.959966 
" clip-path="url(#p90b9686ee4)" style="fill: #1f77b4"/>
    <path d="M 332.605279 91.171325 
L 333.126136 86.878489 
L 331.024629 87.628748 
L 335.198571 78.082794 
L 336.968557 88.349934 
L 335.107445 87.118884 
L 334.586588 91.411721 
L 332.605279 91.171325 
" clip-path="url(#p90b9686ee4)" style="fill: #1f77b4"/>
    <path d="M 333.635655 87.370094 
L 333.921226 83.055214 
L 331.863842 83.919154 
L 335.510077 74.15944 
L 337.838292 84.31456 
L 335.91271 83.187016 
L 335.627139 87.501896 
L 333.635655 87.370094 
" clip-path="url(#p90b9686ee4)" style="fill: #1f77b4"/>
    <path d="M 334.293817 83.943611 
L 334.338599 79.619524 
L 332.332532 80.596722 
L 335.429473 70.649059 
L 338.319731 80.658727 
L 336.334332 79.640192 
L 336.28955 83.96428 
L 334.293817 83.943611 
" clip-path="url(#p90b9686ee4)" style="fill: #1f77b4"/>
    <path d="M 335.060387 80.16185 
L 334.81162 75.844691 
L 332.876493 76.955774 
L 335.291217 66.820877 
L 338.854098 76.611328 
L 336.804155 75.729876 
L 337.052922 80.047034 
L 335.060387 80.16185 
" clip-path="url(#p90b9686ee4)" style="fill: #1f77b4"/>
    <path d="M 335.873574 76.148044 
L 335.390491 71.850792 
L 333.518625 73.065427 
L 335.37884 62.81425 
L 339.468666 72.396543 
L 337.373838 71.627831 
L 337.856921 75.925082 
L 335.873574 76.148044 
" clip-path="url(#p90b9686ee4)" style="fill: #1f77b4"/>
    <path d="M 336.726942 72.14974 
L 336.041038 67.880164 
L 334.22875 69.182022 
L 335.601755 58.854298 
L 340.140471 68.232309 
L 338.011612 67.563593 
L 338.697516 71.833169 
L 336.726942 72.14974 
" clip-path="url(#p90b9686ee4)" style="fill: #1f77b4"/>
    <path d="M 337.547405 68.342319 
L 336.641299 64.113996 
L 334.898867 65.507966 
L 335.735154 55.122993 
L 340.753468 64.253357 
L 338.592833 63.695793 
L 339.498939 67.924116 
L 337.547405 68.342319 
" clip-path="url(#p90b9686ee4)" style="fill: #1f77b4"/>
    <path d="M 338.506464 64.454938 
L 337.488944 60.252035 
L 335.783955 61.691561 
L 336.345533 51.288116 
L 341.603359 60.282686 
L 339.428745 59.78241 
L 340.446265 63.985313 
L 338.506464 64.454938 
" clip-path="url(#p90b9686ee4)" style="fill: #1f77b4"/>
    <path d="M 339.36691 59.272974 
L 338.508425 55.034726 
L 336.750422 56.409007 
L 337.703475 46.034099 
L 342.618766 55.220336 
L 340.464539 54.638502 
L 341.323024 58.87675 
L 339.36691 59.272974 
" clip-path="url(#p90b9686ee4)" style="fill: #1f77b4"/>
    <path d="M 347.139188 56.259156 
L 347.293539 51.937592 
L 345.263352 52.863637 
L 348.611398 42.997654 
L 351.247056 53.077353 
L 349.288107 52.00883 
L 349.133757 56.330395 
L 347.139188 56.259156 
" clip-path="url(#p90b9686ee4)" style="fill: #1f77b4"/>
    <path d="M 351.303406 54.254274 
L 352.151142 50.013863 
L 349.998398 50.601157 
L 354.890381 41.402487 
L 355.869736 51.774945 
L 354.108255 50.405126 
L 353.260519 54.645537 
L 351.303406 54.254274 
" clip-path="url(#p90b9686ee4)" style="fill: #1f77b4"/>
    <path d="M 351.490171 52.588069 
L 352.603142 48.409429 
L 350.417699 48.860052 
L 355.878998 39.987553 
L 356.203509 50.401088 
L 354.531745 48.923108 
L 353.418774 53.101748 
L 351.490171 52.588069 
" clip-path="url(#p90b9686ee4)" style="fill: #1f77b4"/>
    <path d="M 351.560229 51.99175 
L 352.818516 47.854547 
L 350.618663 48.228538 
L 356.38662 39.552266 
L 356.347099 49.970782 
L 354.727995 48.435295 
L 353.469708 52.572498 
L 351.560229 51.99175 
" clip-path="url(#p90b9686ee4)" style="fill: #1f77b4"/>
    <path d="M 351.576359 51.906663 
L 352.975154 47.814828 
L 350.763816 48.1135 
L 356.824614 39.6392 
L 356.429434 50.050293 
L 354.863693 48.460426 
L 353.464898 52.552261 
L 351.576359 51.906663 
" clip-path="url(#p90b9686ee4)" style="fill: #1f77b4"/>
    <path d="M 351.400272 53.621162 
L 352.939149 49.579924 
L 350.718837 49.802267 
L 357.067872 41.54171 
L 356.314397 51.933019 
L 354.804336 50.290175 
L 353.265459 54.331413 
L 351.400272 53.621162 
" clip-path="url(#p90b9686ee4)" style="fill: #1f77b4"/>
    <path d="M 350.885095 57.78831 
L 352.453644 53.758497 
L 350.231758 53.964508 
L 356.641358 45.750857 
L 355.811499 56.136345 
L 354.313558 54.482443 
L 352.745009 58.512256 
L 350.885095 57.78831 
" clip-path="url(#p90b9686ee4)" style="fill: #1f77b4"/>
   </g>
   <g id="Quiver_2">
    <path d="M 202.147832 267.384762 
L 202.231508 263.061252 
L 200.216732 264.020365 
L 203.403032 254.100963 
L 206.203131 264.136225 
L 204.226975 263.099872 
L 204.143298 267.423382 
L 202.147832 267.384762 
" clip-path="url(#p90b9686ee4)" style="fill: #ff7f0e"/>
    <path d="M 202.738787 261.28684 
L 202.945288 256.967453 
L 200.904071 257.868927 
L 204.370956 248.044074 
L 206.88476 258.154851 
L 204.938851 257.062761 
L 204.73235 261.382148 
L 202.738787 261.28684 
" clip-path="url(#p90b9686ee4)" style="fill: #ff7f0e"/>
    <path d="M 203.180224 254.478923 
L 203.43757 250.162267 
L 201.38588 251.039644 
L 204.968208 241.256293 
L 207.362788 251.395968 
L 205.429873 250.281042 
L 205.172527 254.597698 
L 203.180224 254.478923 
" clip-path="url(#p90b9686ee4)" style="fill: #ff7f0e"/>
    <path d="M 203.418695 247.627591 
L 203.74709 243.315759 
L 201.68123 244.15923 
L 205.424178 234.436197 
L 207.65146 244.61393 
L 205.737166 243.467325 
L 205.408772 247.779158 
L 203.418695 247.627591 
" clip-path="url(#p90b9686ee4)" style="fill: #ff7f0e"/>
    <path d="M 203.453249 240.774926 
L 203.816491 236.465889 
L 201.74388 237.292632 
L 205.56531 227.600176 
L 207.710238 237.795583 
L 205.805277 236.633539 
L 205.442035 240.942576 
L 203.453249 240.774926 
" clip-path="url(#p90b9686ee4)" style="fill: #ff7f0e"/>
    <path d="M 203.147846 233.92337 
L 203.499143 229.613343 
L 201.428831 230.445828 
L 205.223381 220.742817 
L 207.396561 230.932239 
L 205.488386 229.77548 
L 205.137089 234.085507 
L 203.147846 233.92337 
" clip-path="url(#p90b9686ee4)" style="fill: #ff7f0e"/>
    <path d="M 202.910375 227.254526 
L 203.255633 222.94401 
L 201.186489 223.779395 
L 204.96744 214.071077 
L 207.154895 224.257444 
L 205.245101 223.10336 
L 204.899844 227.413875 
L 202.910375 227.254526 
" clip-path="url(#p90b9686ee4)" style="fill: #ff7f0e"/>
    <path d="M 203.622416 220.192327 
L 203.965911 215.881671 
L 201.89711 216.717901 
L 205.674091 207.008038 
L 207.86571 217.19351 
L 205.955445 216.040207 
L 205.61195 220.350863 
L 203.622416 220.192327 
" clip-path="url(#p90b9686ee4)" style="fill: #ff7f0e"/>
    <path d="M 204.499622 213.415078 
L 204.866022 209.106308 
L 202.792805 209.931532 
L 206.621337 200.241879 
L 208.758794 210.438855 
L 206.854685 209.275416 
L 206.488285 213.584185 
L 204.499622 213.415078 
" clip-path="url(#p90b9686ee4)" style="fill: #ff7f0e"/>
    <path d="M 204.741453 206.49259 
L 205.088419 202.182212 
L 203.018945 203.016776 
L 206.803744 193.309958 
L 208.987161 203.497191 
L 207.077824 202.34235 
L 206.730858 206.652728 
L 204.741453 206.49259 
" clip-path="url(#p90b9686ee4)" style="fill: #ff7f0e"/>
    <path d="M 205.08048 199.462967 
L 205.424462 195.15235 
L 203.355566 195.988347 
L 207.133643 186.27891 
L 209.324113 196.464629 
L 207.413978 195.31111 
L 207.069996 199.621728 
L 205.08048 199.462967 
" clip-path="url(#p90b9686ee4)" style="fill: #ff7f0e"/>
    <path d="M 209.021748 193.268015 
L 209.664125 188.991673 
L 207.542188 189.682039 
L 211.985141 180.258282 
L 213.463276 190.571485 
L 211.637821 189.288155 
L 210.995444 193.564496 
L 209.021748 193.268015 
" clip-path="url(#p90b9686ee4)" style="fill: #ff7f0e"/>
    <path d="M 223.554357 188.913047 
L 225.142097 184.890756 
L 222.919253 185.086173 
L 229.367932 176.903168 
L 228.488579 187.284583 
L 226.998539 185.623559 
L 225.410799 189.64585 
L 223.554357 188.913047 
" clip-path="url(#p90b9686ee4)" style="fill: #ff7f0e"/>
    <path d="M 228.478791 183.396057 
L 230.463759 179.554229 
L 228.232538 179.524666 
L 235.472962 172.033117 
L 233.551993 182.273084 
L 232.236911 180.470368 
L 230.251942 184.312197 
L 228.478791 183.396057 
" clip-path="url(#p90b9686ee4)" style="fill: #ff7f0e"/>
    <path d="M 232.853932 177.986248 
L 235.107537 174.295583 
L 232.884091 174.107149 
L 240.639795 167.150419 
L 237.994242 177.227526 
L 236.810921 175.335709 
L 234.557315 179.026373 
L 232.853932 177.986248 
" clip-path="url(#p90b9686ee4)" style="fill: #ff7f0e"/>
    <path d="M 237.43858 172.665821 
L 239.930342 169.131579 
L 237.724131 168.797129 
L 245.921134 162.366252 
L 242.617697 172.247261 
L 241.56153 170.281623 
L 239.069768 173.815865 
L 237.43858 172.665821 
" clip-path="url(#p90b9686ee4)" style="fill: #ff7f0e"/>
    <path d="M 241.399305 167.592492 
L 244.02404 164.15585 
L 241.832189 163.737505 
L 250.268484 157.623917 
L 246.590617 167.371754 
L 245.610182 165.367266 
L 242.985447 168.803908 
L 241.399305 167.592492 
" clip-path="url(#p90b9686ee4)" style="fill: #ff7f0e"/>
    <path d="M 248.195579 164.702551 
L 251.252675 161.644136 
L 249.135615 160.938957 
L 258.307819 155.997528 
L 253.370344 165.17186 
L 252.664252 163.055104 
L 249.607155 166.113519 
L 248.195579 164.702551 
" clip-path="url(#p90b9686ee4)" style="fill: #ff7f0e"/>
    <path d="M 252.865698 160.377183 
L 256.026204 157.425752 
L 253.934657 156.648156 
L 263.27143 152.025203 
L 258.021255 161.024241 
L 257.388403 158.884447 
L 254.227897 161.835878 
L 252.865698 160.377183 
" clip-path="url(#p90b9686ee4)" style="fill: #ff7f0e"/>
    <path d="M 258.510789 157.514096 
L 261.861343 154.780321 
L 259.826395 153.864782 
L 269.451057 149.875683 
L 263.611624 158.504011 
L 263.123086 156.32673 
L 259.772532 159.060506 
L 258.510789 157.514096 
" clip-path="url(#p90b9686ee4)" style="fill: #ff7f0e"/>
    <path d="M 265.031031 156.658139 
L 268.662234 154.309925 
L 266.740473 153.17588 
L 276.745858 150.270835 
L 269.991846 158.2037 
L 269.746025 155.985865 
L 266.114822 158.334079 
L 265.031031 156.658139 
" clip-path="url(#p90b9686ee4)" style="fill: #ff7f0e"/>
    <path d="M 274.539012 158.784651 
L 278.555133 157.18137 
L 276.88836 155.697763 
L 287.266297 154.778275 
L 279.108288 161.258547 
L 279.295109 159.034964 
L 275.278988 160.638245 
L 274.539012 158.784651 
" clip-path="url(#p90b9686ee4)" style="fill: #ff7f0e"/>
    <path d="M 281.469621 158.794998 
L 285.608831 157.543328 
L 284.075935 155.92177 
L 294.494501 155.898909 
L 285.809016 161.652985 
L 286.186525 159.453733 
L 282.047314 160.705403 
L 281.469621 158.794998 
" clip-path="url(#p90b9686ee4)" style="fill: #ff7f0e"/>
    <path d="M 285.121614 154.091336 
L 289.198294 152.64897 
L 287.591814 151.100279 
L 297.998099 150.594058 
L 289.588937 156.744913 
L 289.864002 154.530515 
L 285.787321 155.972881 
L 285.121614 154.091336 
" clip-path="url(#p90b9686ee4)" style="fill: #ff7f0e"/>
    <path d="M 290.831688 150.210286 
L 294.891612 148.721408 
L 293.267533 147.191184 
L 303.667351 146.56603 
L 295.329055 152.812618 
L 295.578787 150.595219 
L 291.518862 152.084097 
L 290.831688 150.210286 
" clip-path="url(#p90b9686ee4)" style="fill: #ff7f0e"/>
    <path d="M 296.700414 147.587448 
L 300.748939 146.067847 
L 299.11331 144.549974 
L 309.508092 143.846028 
L 301.217373 150.155625 
L 301.450294 147.936397 
L 297.401769 149.455998 
L 296.700414 147.587448 
" clip-path="url(#p90b9686ee4)" style="fill: #ff7f0e"/>
    <path d="M 301.933251 144.908935 
L 305.959749 143.331896 
L 304.302693 141.837444 
L 314.686409 140.985698 
L 306.486286 147.412596 
L 306.687614 145.19028 
L 302.661115 146.767319 
L 301.933251 144.908935 
" clip-path="url(#p90b9686ee4)" style="fill: #ff7f0e"/>
    <path d="M 305.65228 141.924737 
L 309.700945 140.405508 
L 308.065455 138.887485 
L 318.460301 138.184494 
L 310.169003 144.493329 
L 310.402127 142.274123 
L 306.353462 143.793352 
L 305.65228 141.924737 
" clip-path="url(#p90b9686ee4)" style="fill: #ff7f0e"/>
    <path d="M 308.499596 139.128286 
L 312.554508 137.625811 
L 310.925309 136.101038 
L 321.322973 135.441034 
L 313.005659 141.715532 
L 313.247958 139.497309 
L 309.193046 140.999784 
L 308.499596 139.128286 
" clip-path="url(#p90b9686ee4)" style="fill: #ff7f0e"/>
    <path d="M 313.385993 135.264153 
L 317.224897 133.273534 
L 315.420249 131.961106 
L 325.657378 130.025074 
L 318.17649 137.276511 
L 318.143644 135.045336 
L 314.30474 137.035954 
L 313.385993 135.264153 
" clip-path="url(#p90b9686ee4)" style="fill: #ff7f0e"/>
    <path d="M 317.751085 132.038323 
L 321.462748 129.819471 
L 319.582125 128.618439 
L 329.683628 126.067624 
L 322.654381 133.757664 
L 322.486833 131.532546 
L 318.775171 133.751398 
L 317.751085 132.038323 
" clip-path="url(#p90b9686ee4)" style="fill: #ff7f0e"/>
    <path d="M 322.681543 127.297342 
L 326.198522 124.781274 
L 324.225649 123.738684 
L 334.083649 120.367204 
L 327.709436 128.608347 
L 327.359784 126.404495 
L 323.842805 128.920563 
L 322.681543 127.297342 
" clip-path="url(#p90b9686ee4)" style="fill: #ff7f0e"/>
    <path d="M 325.751445 120.112344 
L 328.782835 117.028448 
L 326.659946 116.341013 
L 335.790467 111.322983 
L 330.929957 120.538322 
L 330.206172 118.427551 
L 327.174782 121.511447 
L 325.751445 120.112344 
" clip-path="url(#p90b9686ee4)" style="fill: #ff7f0e"/>
    <path d="M 327.313856 113.043855 
L 329.70743 109.442391 
L 327.492853 109.168772 
L 335.509807 102.51479 
L 332.479495 112.482952 
L 331.369645 110.547118 
L 328.97607 114.148582 
L 327.313856 113.043855 
" clip-path="url(#p90b9686ee4)" style="fill: #ff7f0e"/>
    <path d="M 327.414159 110.659717 
L 329.559622 106.905156 
L 327.331641 106.781379 
L 334.882022 99.602328 
L 332.530264 109.752021 
L 331.292497 107.89537 
L 329.147033 111.649931 
L 327.414159 110.659717 
" clip-path="url(#p90b9686ee4)" style="fill: #ff7f0e"/>
    <path d="M 329.702979 102.078457 
L 331.183245 98.015385 
L 328.966381 98.269817 
L 335.195277 89.918297 
L 334.592173 100.319417 
L 333.058509 98.698585 
L 331.578243 102.761657 
L 329.702979 102.078457 
" clip-path="url(#p90b9686ee4)" style="fill: #ff7f0e"/>
    <path d="M 332.210693 93.062054 
L 333.030605 88.816175 
L 330.881758 89.417573 
L 335.713317 80.187022 
L 336.760668 90.552835 
L 334.990242 89.194596 
L 334.17033 93.440475 
L 332.210693 93.062054 
" clip-path="url(#p90b9686ee4)" style="fill: #ff7f0e"/>
    <path d="M 333.585957 87.948889 
L 334.060754 83.650713 
L 331.967413 84.423463 
L 336.038759 74.833302 
L 337.918732 85.080874 
L 336.044528 83.869851 
L 335.56973 88.168026 
L 333.585957 87.948889 
" clip-path="url(#p90b9686ee4)" style="fill: #ff7f0e"/>
    <path d="M 334.746315 84.212227 
L 335.12443 79.90447 
L 333.048977 80.724053 
L 336.903846 71.044847 
L 339.013564 81.247598 
L 337.112626 80.078985 
L 336.73451 84.386742 
L 334.746315 84.212227 
" clip-path="url(#p90b9686ee4)" style="fill: #ff7f0e"/>
    <path d="M 335.67336 80.461494 
L 335.847844 76.140696 
L 333.813364 77.057272 
L 337.207342 67.206996 
L 339.796008 77.298866 
L 337.842059 76.221227 
L 337.667575 80.542026 
L 335.67336 80.461494 
" clip-path="url(#p90b9686ee4)" style="fill: #ff7f0e"/>
    <path d="M 336.099039 77.587471 
L 336.189104 73.264089 
L 334.172913 74.220224 
L 337.373866 64.305542 
L 340.159134 74.34493 
L 338.184511 73.305658 
L 338.094446 77.62904 
L 336.099039 77.587471 
" clip-path="url(#p90b9686ee4)" style="fill: #ff7f0e"/>
    <path d="M 337.146349 73.96308 
L 336.933106 69.644021 
L 334.988904 70.739147 
L 337.486922 60.624458 
L 340.969139 70.443887 
L 338.926517 69.545601 
L 339.139761 73.86466 
L 337.146349 73.96308 
" clip-path="url(#p90b9686ee4)" style="fill: #ff7f0e"/>
    <path d="M 337.888265 70.038994 
L 337.382954 65.744299 
L 335.517398 66.968603 
L 337.324547 56.707938 
L 341.463898 66.268942 
L 339.365121 65.511079 
L 339.870432 69.805774 
L 337.888265 70.038994 
" clip-path="url(#p90b9686ee4)" style="fill: #ff7f0e"/>
    <path d="M 338.92579 65.26538 
L 338.241261 60.995583 
L 336.428554 62.296857 
L 337.804885 51.969576 
L 342.34058 61.349048 
L 340.211937 60.679646 
L 340.896466 64.949443 
L 338.92579 65.26538 
" clip-path="url(#p90b9686ee4)" style="fill: #ff7f0e"/>
    <path d="M 339.686092 60.869242 
L 338.781915 56.640506 
L 337.038847 58.03368 
L 337.879873 47.64909 
L 342.89402 56.781744 
L 340.73364 56.223194 
L 341.637816 60.45193 
L 339.686092 60.869242 
" clip-path="url(#p90b9686ee4)" style="fill: #ff7f0e"/>
    <path d="M 340.402363 56.504547 
L 339.331203 52.314993 
L 337.644754 53.776195 
L 338.073307 43.366422 
L 343.445674 52.293051 
L 341.264843 51.820612 
L 342.336003 56.010166 
L 340.402363 56.504547 
" clip-path="url(#p90b9686ee4)" style="fill: #ff7f0e"/>
    <path d="M 340.694318 54.206939 
L 339.776742 49.981091 
L 338.038098 51.379783 
L 338.846204 40.992579 
L 343.889274 50.109294 
L 341.727134 49.557594 
L 342.644709 53.783443 
L 340.694318 54.206939 
" clip-path="url(#p90b9686ee4)" style="fill: #ff7f0e"/>
    <path d="M 340.555759 50.30401 
L 340.429925 45.981521 
L 338.463969 47.037096 
L 341.166074 36.975006 
L 344.448953 46.862864 
L 342.42492 45.923444 
L 342.550754 50.245932 
L 340.555759 50.30401 
" clip-path="url(#p90b9686ee4)" style="fill: #ff7f0e"/>
    <path d="M 341.203543 48.501917 
L 341.632347 44.19891 
L 339.547389 44.994002 
L 343.515942 35.36085 
L 345.505399 45.587731 
L 343.61835 44.39682 
L 343.189546 48.699827 
L 341.203543 48.501917 
" clip-path="url(#p90b9686ee4)" style="fill: #ff7f0e"/>
    <path d="M 344.739116 48.564483 
L 345.749028 44.359745 
L 343.575323 44.863956 
L 348.816861 35.859884 
L 349.397268 46.262296 
L 347.689676 44.825858 
L 346.679764 49.030596 
L 344.739116 48.564483 
" clip-path="url(#p90b9686ee4)" style="fill: #ff7f0e"/>
    <path d="M 351.395163 51.134852 
L 352.874738 47.071528 
L 350.657918 47.326337 
L 356.885393 38.973758 
L 356.284058 49.37498 
L 354.750119 47.754409 
L 353.270543 51.817733 
L 351.395163 51.134852 
" clip-path="url(#p90b9686ee4)" style="fill: #ff7f0e"/>
    <path d="M 351.473176 51.080768 
L 353.187116 47.11061 
L 350.959211 47.235751 
L 357.663027 39.260421 
L 356.456353 49.608898 
L 355.019496 47.901659 
L 353.305557 51.871817 
L 351.473176 51.080768 
" clip-path="url(#p90b9686ee4)" style="fill: #ff7f0e"/>
    <path d="M 351.219991 51.326826 
L 353.043163 47.405629 
L 350.812648 47.469056 
L 357.734644 39.682337 
L 356.241997 49.993449 
L 354.852946 48.247093 
L 353.029774 52.16829 
L 351.219991 51.326826 
" clip-path="url(#p90b9686ee4)" style="fill: #ff7f0e"/>
   </g>
   <g id="Quiver_3">
    <path d="M 199.411756 201.038091 
L 199.199561 196.51537 
L 197.296768 197.58104 
L 199.762425 187.701402 
L 203.142274 197.306783 
L 201.148062 196.423951 
L 201.360258 200.946671 
L 199.411756 201.038091 
" clip-path="url(#p90b9686ee4)" style="fill: #1f77b4"/>
    <path d="M 196.405174 206.85041 
L 195.996471 202.341199 
L 194.141829 203.488619 
L 196.175455 193.51109 
L 199.969875 202.960381 
L 197.939153 202.165119 
L 198.347856 206.674331 
L 196.405174 206.85041 
" clip-path="url(#p90b9686ee4)" style="fill: #1f77b4"/>
    <path d="M 194.783294 212.204415 
L 194.208575 207.713343 
L 192.39751 208.92838 
L 194.061795 198.882641 
L 198.202111 208.185571 
L 196.143442 207.46574 
L 196.71816 211.956812 
L 194.783294 212.204415 
" clip-path="url(#p90b9686ee4)" style="fill: #1f77b4"/>
    <path d="M 188.167012 219.796741 
L 187.05349 215.408108 
L 185.402623 216.833208 
L 185.840058 206.659941 
L 191.074824 215.394009 
L 188.944224 214.928375 
L 190.057746 219.317008 
L 188.167012 219.796741 
" clip-path="url(#p90b9686ee4)" style="fill: #1f77b4"/>
    <path d="M 180.245835 226.738782 
L 178.494965 222.56332 
L 177.07323 224.217086 
L 175.999977 214.091137 
L 182.469913 221.954129 
L 180.293859 221.809001 
L 182.044729 225.984463 
L 180.245835 226.738782 
" clip-path="url(#p90b9686ee4)" style="fill: #1f77b4"/>
    <path d="M 180.095433 229.331827 
L 178.30206 225.174443 
L 176.89727 226.842626 
L 175.720777 216.728152 
L 182.270587 224.524736 
L 180.093166 224.401813 
L 181.886539 228.559197 
L 180.095433 229.331827 
" clip-path="url(#p90b9686ee4)" style="fill: #1f77b4"/>
    <path d="M 179.569618 229.024897 
L 177.75341 224.877438 
L 176.357814 226.553321 
L 175.125718 216.44547 
L 181.718303 224.205917 
L 179.54024 224.09497 
L 181.356447 228.242429 
L 179.569618 229.024897 
" clip-path="url(#p90b9686ee4)" style="fill: #1f77b4"/>
    <path d="M 178.332986 226.767126 
L 176.484649 222.633886 
L 175.1021 224.320548 
L 173.791605 214.222562 
L 180.444213 221.931617 
L 178.265353 221.837576 
L 180.113691 225.970816 
L 178.332986 226.767126 
" clip-path="url(#p90b9686ee4)" style="fill: #1f77b4"/>
    <path d="M 176.054746 223.454587 
L 174.140104 219.35164 
L 172.784889 221.060342 
L 171.311987 210.984764 
L 178.087847 218.585714 
L 175.907757 218.526764 
L 177.822399 222.62971 
L 176.054746 223.454587 
" clip-path="url(#p90b9686ee4)" style="fill: #1f77b4"/>
    <path d="M 174.338939 218.065406 
L 172.457395 213.947176 
L 171.088466 215.644911 
L 169.696739 205.5578 
L 176.411178 213.213062 
L 174.231632 213.13656 
L 176.113176 217.25479 
L 174.338939 218.065406 
" clip-path="url(#p90b9686ee4)" style="fill: #1f77b4"/>
    <path d="M 173.957077 211.603964 
L 172.187828 207.436257 
L 170.773393 209.09627 
L 169.655539 198.975148 
L 176.160053 206.809559 
L 173.983381 206.67402 
L 175.75263 210.841727 
L 173.957077 211.603964 
" clip-path="url(#p90b9686ee4)" style="fill: #1f77b4"/>
    <path d="M 173.61082 205.051955 
L 171.9226 200.850772 
L 170.476288 202.483088 
L 169.554611 192.342218 
L 175.906214 200.301104 
L 173.732575 200.123444 
L 175.420796 204.324627 
L 173.61082 205.051955 
" clip-path="url(#p90b9686ee4)" style="fill: #1f77b4"/>
    <path d="M 174.035466 198.055413 
L 172.520138 193.78882 
L 171.008404 195.360739 
L 170.501431 185.1907 
L 176.52287 193.402216 
L 174.358294 193.135979 
L 175.873621 197.402572 
L 174.035466 198.055413 
" clip-path="url(#p90b9686ee4)" style="fill: #1f77b4"/>
    <path d="M 177.126492 190.936204 
L 175.929664 186.569554 
L 174.306213 188.025809 
L 174.549989 177.84606 
L 179.950001 186.478938 
L 177.810926 186.05393 
L 179.007754 190.42058 
L 177.126492 190.936204 
" clip-path="url(#p90b9686ee4)" style="fill: #1f77b4"/>
    <path d="M 183.723817 183.542321 
L 183.110319 179.056382 
L 181.309818 180.287021 
L 182.887249 170.227278 
L 187.107785 179.494089 
L 185.042974 178.792072 
L 185.656472 183.278011 
L 183.723817 183.542321 
" clip-path="url(#p90b9686ee4)" style="fill: #1f77b4"/>
    <path d="M 186.533051 179.15506 
L 186.481881 174.627653 
L 184.542383 175.624959 
L 187.357936 165.839287 
L 190.393945 175.558822 
L 188.432402 174.605608 
L 188.483572 179.133014 
L 186.533051 179.15506 
" clip-path="url(#p90b9686ee4)" style="fill: #1f77b4"/>
    <path d="M 190.360666 176.402361 
L 191.023809 171.923492 
L 188.95135 172.602598 
L 193.274258 163.383098 
L 194.740179 173.459695 
L 192.953419 172.209191 
L 192.290276 176.68806 
L 190.360666 176.402361 
" clip-path="url(#p90b9686ee4)" style="fill: #1f77b4"/>
    <path d="M 192.422086 174.933123 
L 193.5183 170.540135 
L 191.389552 171.014164 
L 196.589848 162.259529 
L 197.067381 172.430993 
L 195.41091 171.012412 
L 194.314696 175.4054 
L 192.422086 174.933123 
" clip-path="url(#p90b9686ee4)" style="fill: #1f77b4"/>
    <path d="M 194.203606 174.59848 
L 195.788164 170.357112 
L 193.619542 170.588088 
L 199.773813 162.475649 
L 199.101406 172.636091 
L 197.615452 171.039779 
L 196.030894 175.281147 
L 194.203606 174.59848 
" clip-path="url(#p90b9686ee4)" style="fill: #1f77b4"/>
    <path d="M 196.572671 173.999342 
L 198.745406 170.027031 
L 196.566 169.946648 
L 203.813401 162.793894 
L 201.700114 172.754855 
L 200.456777 170.9631 
L 198.284042 174.935411 
L 196.572671 173.999342 
" clip-path="url(#p90b9686ee4)" style="fill: #1f77b4"/>
    <path d="M 198.685465 170.952981 
L 201.1198 167.135385 
L 198.950697 166.908971 
L 206.661637 160.258548 
L 203.884846 170.05529 
L 202.764516 168.184158 
L 200.330181 172.001754 
L 198.685465 170.952981 
" clip-path="url(#p90b9686ee4)" style="fill: #1f77b4"/>
    <path d="M 201.357052 166.971672 
L 204.0271 163.315052 
L 201.876574 162.95241 
L 209.99124 156.801076 
L 206.602666 166.403382 
L 205.602464 164.465376 
L 202.932416 168.121996 
L 201.357052 166.971672 
" clip-path="url(#p90b9686ee4)" style="fill: #1f77b4"/>
    <path d="M 203.942403 163.041686 
L 206.795303 159.525866 
L 204.666048 159.054117 
L 213.08361 153.32425 
L 209.21016 162.74142 
L 208.310006 160.754967 
L 205.457106 164.270787 
L 203.942403 163.041686 
" clip-path="url(#p90b9686ee4)" style="fill: #1f77b4"/>
    <path d="M 206.015648 160.447589 
L 208.987888 157.032063 
L 206.876135 156.487295 
L 215.485955 151.050594 
L 211.290619 160.328841 
L 210.459382 158.312578 
L 207.487143 161.728105 
L 206.015648 160.447589 
" clip-path="url(#p90b9686ee4)" style="fill: #1f77b4"/>
    <path d="M 205.739427 160.783712 
L 208.681561 157.342218 
L 206.565106 156.816014 
L 215.126856 151.303922 
L 211.013152 160.61865 
L 210.164243 158.609763 
L 207.222109 162.051257 
L 205.739427 160.783712 
" clip-path="url(#p90b9686ee4)" style="fill: #1f77b4"/>
    <path d="M 204.05423 162.824167 
L 206.820524 159.239805 
L 204.680396 158.820133 
L 212.955691 152.88665 
L 209.313096 162.3955 
L 208.364757 160.431594 
L 205.598463 164.015956 
L 204.05423 162.824167 
" clip-path="url(#p90b9686ee4)" style="fill: #1f77b4"/>
    <path d="M 202.439758 165.175679 
L 205.030245 161.46227 
L 202.872392 161.146138 
L 210.852373 154.821059 
L 207.671882 164.49428 
L 206.630075 162.578318 
L 204.039588 166.291726 
L 202.439758 165.175679 
" clip-path="url(#p90b9686ee4)" style="fill: #1f77b4"/>
    <path d="M 200.231317 165.844562 
L 202.468119 161.907972 
L 200.290301 161.792293 
L 207.652628 154.757887 
L 205.378248 164.683305 
L 204.164101 162.871643 
L 201.927299 166.808233 
L 200.231317 165.844562 
" clip-path="url(#p90b9686ee4)" style="fill: #1f77b4"/>
    <path d="M 195.966496 164.827819 
L 197.425661 160.541696 
L 195.264768 160.836336 
L 201.17785 152.546451 
L 200.804479 162.722271 
L 199.272232 161.170341 
L 197.813067 165.456464 
L 195.966496 164.827819 
" clip-path="url(#p90b9686ee4)" style="fill: #1f77b4"/>
    <path d="M 189.424202 164.347439 
L 189.901386 159.84496 
L 187.858813 160.609268 
L 191.796401 151.218734 
L 193.678158 161.226017 
L 191.841168 160.050543 
L 191.363984 164.553022 
L 189.424202 164.347439 
" clip-path="url(#p90b9686ee4)" style="fill: #1f77b4"/>
    <path d="M 182.503908 165.040257 
L 182.177437 160.524347 
L 180.302195 161.637783 
L 182.517287 151.698966 
L 186.138898 161.215827 
L 184.123005 160.383695 
L 184.449476 164.899605 
L 182.503908 165.040257 
" clip-path="url(#p90b9686ee4)" style="fill: #1f77b4"/>
    <path d="M 181.985869 164.146877 
L 181.518801 159.643337 
L 179.679175 160.814681 
L 181.58341 150.811651 
L 185.499891 160.211008 
L 183.45904 159.442113 
L 183.926108 163.945653 
L 181.985869 164.146877 
" clip-path="url(#p90b9686ee4)" style="fill: #1f77b4"/>
    <path d="M 183.153137 161.339891 
L 182.821725 156.824341 
L 180.947702 157.939828 
L 183.151916 147.998593 
L 186.78394 157.511486 
L 184.767137 156.68156 
L 185.09855 161.19711 
L 183.153137 161.339891 
" clip-path="url(#p90b9686ee4)" style="fill: #1f77b4"/>
    <path d="M 184.804182 157.260753 
L 184.651061 152.735648 
L 182.734515 153.776381 
L 185.328968 143.929781 
L 188.583104 153.578476 
L 186.60059 152.669679 
L 186.753711 157.194785 
L 184.804182 157.260753 
" clip-path="url(#p90b9686ee4)" style="fill: #1f77b4"/>
    <path d="M 186.799557 152.404337 
L 186.840572 147.876827 
L 184.881172 148.834439 
L 187.895371 139.108118 
L 190.732868 148.88745 
L 188.791138 147.894497 
L 188.750123 152.422007 
L 186.799557 152.404337 
" clip-path="url(#p90b9686ee4)" style="fill: #1f77b4"/>
    <path d="M 188.880191 147.597939 
L 189.117398 143.076462 
L 187.118334 143.94825 
L 190.551259 134.36171 
L 192.962233 144.254835 
L 191.065365 143.178657 
L 190.828157 147.700134 
L 188.880191 147.597939 
" clip-path="url(#p90b9686ee4)" style="fill: #1f77b4"/>
    <path d="M 190.445541 142.73463 
L 190.788929 138.219974 
L 188.769932 139.044548 
L 192.427175 129.541322 
L 194.605013 139.488369 
L 192.733956 138.367915 
L 192.390568 142.88257 
L 190.445541 142.73463 
" clip-path="url(#p90b9686ee4)" style="fill: #1f77b4"/>
    <path d="M 190.950253 138.041246 
L 191.266146 133.524584 
L 189.252207 134.361435 
L 192.851517 124.836117 
L 195.089882 134.769719 
L 193.212038 133.660678 
L 192.896145 138.177341 
L 190.950253 138.041246 
" clip-path="url(#p90b9686ee4)" style="fill: #1f77b4"/>
    <path d="M 191.271374 132.550695 
L 191.558182 128.032092 
L 189.549672 128.881892 
L 193.087583 119.333599 
L 195.389855 129.252584 
L 193.50491 128.155656 
L 193.218102 132.674259 
L 191.271374 132.550695 
" clip-path="url(#p90b9686ee4)" style="fill: #1f77b4"/>
    <path d="M 191.261568 127.141175 
L 191.43377 122.616756 
L 189.447441 123.517184 
L 192.742237 113.882297 
L 195.295143 123.73975 
L 193.383004 122.690945 
L 193.210802 127.215364 
L 191.261568 127.141175 
" clip-path="url(#p90b9686ee4)" style="fill: #1f77b4"/>
    <path d="M 190.7013 121.968855 
L 190.696245 117.441162 
L 188.74669 118.418662 
L 191.661766 108.662175 
L 194.598622 118.412128 
L 192.646889 117.438984 
L 192.651945 121.966677 
L 190.7013 121.968855 
" clip-path="url(#p90b9686ee4)" style="fill: #1f77b4"/>
    <path d="M 189.178056 116.884691 
L 188.837487 112.369822 
L 186.965731 113.489108 
L 189.149781 103.543423 
L 192.801088 113.048931 
L 190.782606 112.223097 
L 191.123175 116.737966 
L 189.178056 116.884691 
" clip-path="url(#p90b9686ee4)" style="fill: #1f77b4"/>
    <path d="M 186.228341 112.063919 
L 185.336614 107.624904 
L 183.616264 108.965302 
L 184.564031 98.826838 
L 189.353582 107.812767 
L 187.249053 107.240726 
L 188.14078 111.67974 
L 186.228341 112.063919 
" clip-path="url(#p90b9686ee4)" style="fill: #1f77b4"/>
    <path d="M 183.027864 107.53853 
L 181.659498 103.222559 
L 180.094832 104.741801 
L 179.936342 94.560367 
L 185.673118 102.97322 
L 183.518926 102.633033 
L 184.887293 106.949003 
L 183.027864 107.53853 
" clip-path="url(#p90b9686ee4)" style="fill: #1f77b4"/>
    <path d="M 179.245514 103.708948 
L 177.435704 99.558694 
L 176.037526 101.232423 
L 174.821017 91.122684 
L 181.401628 98.893287 
L 179.223738 98.778982 
L 181.033549 102.929236 
L 179.245514 103.708948 
" clip-path="url(#p90b9686ee4)" style="fill: #1f77b4"/>
    <path d="M 175.161878 100.597179 
L 172.998545 96.61974 
L 171.750974 98.408549 
L 169.661253 88.442618 
L 176.891716 95.612494 
L 174.712126 95.687722 
L 176.875459 99.66516 
L 175.161878 100.597179 
" clip-path="url(#p90b9686ee4)" style="fill: #1f77b4"/>
    <path d="M 171.961693 98.604209 
L 169.543045 94.776655 
L 168.415046 96.643173 
L 165.678482 86.835118 
L 173.362065 93.517129 
L 171.192051 93.734641 
L 173.6107 97.562195 
L 171.961693 98.604209 
" clip-path="url(#p90b9686ee4)" style="fill: #1f77b4"/>
    <path d="M 170.521643 97.847282 
L 168.015494 94.07644 
L 166.930776 95.968439 
L 163.969078 86.226002 
L 171.804498 92.729303 
L 169.640068 92.996728 
L 172.146216 96.76757 
L 170.521643 97.847282 
" clip-path="url(#p90b9686ee4)" style="fill: #1f77b4"/>
    <path d="M 171.434167 98.305916 
L 169.129258 94.408811 
L 167.946794 96.241309 
L 165.500188 86.356935 
L 172.983706 93.262271 
L 170.808229 93.415798 
L 173.113137 97.312903 
L 171.434167 98.305916 
" clip-path="url(#p90b9686ee4)" style="fill: #1f77b4"/>
    <path d="M 173.864652 99.63459 
L 171.948946 95.53214 
L 170.594174 97.241194 
L 169.118661 87.165998 
L 175.896491 94.76519 
L 173.716385 94.706805 
L 175.632091 98.809256 
L 173.864652 99.63459 
" clip-path="url(#p90b9686ee4)" style="fill: #1f77b4"/>
    <path d="M 176.929081 102.043893 
L 175.334687 97.806212 
L 173.85244 99.405967 
L 173.156463 89.247112 
L 179.329538 97.345251 
L 177.160386 97.119307 
L 178.754781 101.356987 
L 176.929081 102.043893 
" clip-path="url(#p90b9686ee4)" style="fill: #1f77b4"/>
    <path d="M 180.065165 104.88362 
L 178.765498 100.546467 
L 177.176908 102.040673 
L 177.180093 91.858006 
L 182.782572 100.360885 
L 180.634052 99.986537 
L 181.93372 104.32369 
L 180.065165 104.88362 
" clip-path="url(#p90b9686ee4)" style="fill: #1f77b4"/>
    <path d="M 182.320921 107.681841 
L 181.265422 103.278893 
L 179.595889 104.682078 
L 180.167564 94.515471 
L 185.286592 103.317872 
L 183.162323 102.824157 
L 184.217822 107.227105 
L 182.320921 107.681841 
" clip-path="url(#p90b9686ee4)" style="fill: #1f77b4"/>
    <path d="M 183.370697 110.116819 
L 182.343239 105.707243 
L 180.66481 107.099776 
L 181.301171 96.937012 
L 186.364079 105.771812 
L 184.242995 105.264588 
L 185.270453 109.674164 
L 183.370697 110.116819 
" clip-path="url(#p90b9686ee4)" style="fill: #1f77b4"/>
    <path d="M 182.910403 111.987979 
L 181.599949 107.654073 
L 180.015081 109.152228 
L 179.992931 98.969585 
L 185.616548 107.458498 
L 183.467104 107.089497 
L 184.777559 111.423402 
L 182.910403 111.987979 
" clip-path="url(#p90b9686ee4)" style="fill: #1f77b4"/>
    <path d="M 181.211454 113.095883 
L 179.378067 108.955989 
L 177.989431 110.637643 
L 176.715441 100.534987 
L 183.340143 108.268035 
L 181.161638 108.166119 
L 182.995025 112.306013 
L 181.211454 113.095883 
" clip-path="url(#p90b9686ee4)" style="fill: #1f77b4"/>
    <path d="M 179.127264 111.695064 
L 176.941475 107.729921 
L 175.704038 109.525756 
L 173.557999 99.5718 
L 180.828888 106.700678 
L 178.649758 106.788229 
L 180.835547 110.753372 
L 179.127264 111.695064 
" clip-path="url(#p90b9686ee4)" style="fill: #1f77b4"/>
    <path d="M 177.196297 108.369802 
L 174.804616 104.52534 
L 173.663523 106.383882 
L 170.995978 96.556831 
L 178.632397 103.292692 
L 176.460907 103.494943 
L 178.852589 107.339406 
L 177.196297 108.369802 
" clip-path="url(#p90b9686ee4)" style="fill: #1f77b4"/>
    <path d="M 174.501816 104.773322 
L 171.894417 101.071768 
L 170.861361 102.992462 
L 167.63678 93.33385 
L 175.645529 99.622463 
L 173.48914 99.948435 
L 176.096539 103.649989 
L 174.501816 104.773322 
" clip-path="url(#p90b9686ee4)" style="fill: #1f77b4"/>
    <path d="M 171.32226 102.355485 
L 168.499943 98.815067 
L 167.582604 100.793643 
L 163.79093 91.34325 
L 172.158507 97.145867 
L 170.025244 97.599142 
L 172.847561 101.139559 
L 171.32226 102.355485 
" clip-path="url(#p90b9686ee4)" style="fill: #1f77b4"/>
    <path d="M 166.724517 99.679889 
L 163.530403 96.470893 
L 162.835939 98.538256 
L 158.029188 89.561516 
L 166.983488 94.409941 
L 164.912919 95.094788 
L 168.107034 98.303784 
L 166.724517 99.679889 
" clip-path="url(#p90b9686ee4)" style="fill: #1f77b4"/>
    <path d="M 160.645963 97.223572 
L 156.947497 94.611794 
L 156.618974 96.767796 
L 150.339843 88.751611 
L 159.994632 91.98762 
L 158.072717 93.018402 
L 161.771183 95.63018 
L 160.645963 97.223572 
" clip-path="url(#p90b9686ee4)" style="fill: #1f77b4"/>
    <path d="M 154.411029 96.000568 
L 150.333862 94.031624 
L 150.363864 96.212305 
L 142.85354 89.336132 
L 152.908676 90.942667 
L 151.182132 92.275078 
L 155.259299 94.244022 
L 154.411029 96.000568 
" clip-path="url(#p90b9686ee4)" style="fill: #1f77b4"/>
    <path d="M 150.136737 97.42964 
L 145.752803 96.297761 
L 146.209515 98.430291 
L 137.497432 93.159018 
L 147.672441 92.764163 
L 146.240445 94.409052 
L 150.624379 95.540931 
L 150.136737 97.42964 
" clip-path="url(#p90b9686ee4)" style="fill: #1f77b4"/>
    <path d="M 147.69284 99.211681 
L 143.188628 98.751138 
L 143.960478 100.790873 
L 134.555459 96.888011 
L 144.55572 94.969288 
L 143.387042 96.81061 
L 147.891254 97.271153 
L 147.69284 99.211681 
" clip-path="url(#p90b9686ee4)" style="fill: #1f77b4"/>
    <path d="M 145.645855 102.199145 
L 141.140689 102.650275 
L 142.305517 104.494035 
L 132.309287 102.554418 
L 141.722442 98.671219 
L 140.946331 100.709337 
L 145.451496 100.258207 
L 145.645855 102.199145 
" clip-path="url(#p90b9686ee4)" style="fill: #1f77b4"/>
    <path d="M 144.334731 103.545529 
L 139.891823 104.417655 
L 141.224615 106.143904 
L 131.090433 105.151398 
L 140.097414 100.401555 
L 139.516089 102.503538 
L 143.958997 101.631412 
L 144.334731 103.545529 
" clip-path="url(#p90b9686ee4)" style="fill: #1f77b4"/>
   </g>
   <g id="Quiver_4">
    <path d="M 202.896442 206.573437 
L 203.05024 202.048354 
L 201.067591 202.956853 
L 204.323172 193.308646 
L 206.916149 203.155635 
L 204.99976 202.114614 
L 204.845961 206.639698 
L 202.896442 206.573437 
" clip-path="url(#p90b9686ee4)" style="fill: #ff7f0e"/>
    <path d="M 202.232907 212.649938 
L 202.399543 208.125309 
L 200.414324 209.02818 
L 203.697265 199.389248 
L 206.262295 209.243553 
L 204.348867 208.1971 
L 204.18223 212.721729 
L 202.232907 212.649938 
" clip-path="url(#p90b9686ee4)" style="fill: #ff7f0e"/>
    <path d="M 194.593001 219.010341 
L 194.151634 214.504209 
L 192.305355 215.665038 
L 194.266627 205.673035 
L 198.12942 215.094582 
L 196.092989 214.314056 
L 196.534356 218.820189 
L 194.593001 219.010341 
" clip-path="url(#p90b9686ee4)" style="fill: #ff7f0e"/>
    <path d="M 189.892951 225.993247 
L 188.922075 221.570869 
L 187.225942 222.941782 
L 187.992462 212.788006 
L 192.941758 221.68695 
L 190.827347 221.152591 
L 191.798223 225.57497 
L 189.892951 225.993247 
" clip-path="url(#p90b9686ee4)" style="fill: #ff7f0e"/>
    <path d="M 186.532024 230.813298 
L 185.132805 226.50723 
L 183.579052 228.03763 
L 183.347701 217.857591 
L 189.144538 226.229174 
L 186.987967 225.904412 
L 188.387186 230.210479 
L 186.532024 230.813298 
" clip-path="url(#p90b9686ee4)" style="fill: #ff7f0e"/>
    <path d="M 186.16292 231.096271 
L 184.709351 226.808245 
L 183.175078 228.358173 
L 182.814994 218.181875 
L 188.717247 226.479472 
L 186.556741 226.182011 
L 188.010309 230.470038 
L 186.16292 231.096271 
" clip-path="url(#p90b9686ee4)" style="fill: #ff7f0e"/>
    <path d="M 184.810821 228.904453 
L 183.300533 224.636074 
L 181.786943 226.206206 
L 181.291981 216.035575 
L 187.303719 224.254196 
L 185.139459 223.985403 
L 186.649747 228.253783 
L 184.810821 228.904453 
" clip-path="url(#p90b9686ee4)" style="fill: #ff7f0e"/>
    <path d="M 181.373493 222.807902 
L 179.718571 218.593491 
L 178.259387 220.21431 
L 177.417989 210.066464 
L 183.706411 218.075364 
L 181.534245 217.880509 
L 183.189167 222.09492 
L 181.373493 222.807902 
" clip-path="url(#p90b9686ee4)" style="fill: #ff7f0e"/>
    <path d="M 178.047715 216.542329 
L 176.313216 212.360039 
L 174.885013 214.008223 
L 173.851437 203.878147 
L 180.29052 211.766425 
L 178.115051 211.612773 
L 179.84955 215.795063 
L 178.047715 216.542329 
" clip-path="url(#p90b9686ee4)" style="fill: #ff7f0e"/>
    <path d="M 175.290846 210.136075 
L 173.545171 205.958438 
L 172.12138 207.610434 
L 171.060724 197.483158 
L 177.520873 205.354193 
L 175.345002 205.206358 
L 177.090677 209.383995 
L 175.290846 210.136075 
" clip-path="url(#p90b9686ee4)" style="fill: #ff7f0e"/>
    <path d="M 173.878107 203.354676 
L 172.131263 199.177528 
L 170.707935 200.829922 
L 169.644445 190.702943 
L 176.106796 198.572169 
L 173.930884 198.424943 
L 175.677727 202.602092 
L 173.878107 203.354676 
" clip-path="url(#p90b9686ee4)" style="fill: #ff7f0e"/>
    <path d="M 174.050516 196.381896 
L 172.3814 192.173085 
L 170.927687 193.798813 
L 170.052094 183.653861 
L 176.367471 191.641522 
L 174.194661 191.453988 
L 175.863777 195.662799 
L 174.050516 196.381896 
" clip-path="url(#p90b9686ee4)" style="fill: #ff7f0e"/>
    <path d="M 174.810712 189.002314 
L 173.263844 184.747055 
L 171.763786 186.330121 
L 171.181548 176.164113 
L 177.263604 184.330832 
L 175.097117 184.080625 
L 176.643985 188.335885 
L 174.810712 189.002314 
" clip-path="url(#p90b9686ee4)" style="fill: #ff7f0e"/>
    <path d="M 176.231043 181.806583 
L 174.942381 177.466148 
L 173.350006 178.95632 
L 173.379019 168.773694 
L 178.959912 177.290756 
L 176.81235 176.91096 
L 178.101012 181.251395 
L 176.231043 181.806583 
" clip-path="url(#p90b9686ee4)" style="fill: #ff7f0e"/>
    <path d="M 181.852116 174.960929 
L 181.107931 170.49481 
L 179.344121 171.777482 
L 180.627229 161.675979 
L 185.116471 170.815641 
L 183.032047 170.174196 
L 183.776232 174.640316 
L 181.852116 174.960929 
" clip-path="url(#p90b9686ee4)" style="fill: #ff7f0e"/>
    <path d="M 188.242826 172.017103 
L 188.324409 167.490142 
L 186.356506 168.430159 
L 189.457739 158.731238 
L 192.207492 168.535603 
L 190.274737 167.52529 
L 190.193155 172.052251 
L 188.242826 172.017103 
" clip-path="url(#p90b9686ee4)" style="fill: #ff7f0e"/>
    <path d="M 190.729876 171.801273 
L 191.273704 167.306356 
L 189.220033 168.040323 
L 193.296292 158.709148 
L 195.029603 168.743207 
L 193.210227 167.540651 
L 192.666399 172.035568 
L 190.729876 171.801273 
" clip-path="url(#p90b9686ee4)" style="fill: #ff7f0e"/>
    <path d="M 191.315488 171.769805 
L 192.0054 167.29498 
L 189.928917 167.961683 
L 194.306874 158.768195 
L 195.712518 168.853376 
L 193.933267 167.592212 
L 193.243355 172.067036 
L 191.315488 171.769805 
" clip-path="url(#p90b9686ee4)" style="fill: #ff7f0e"/>
    <path d="M 194.268963 172.718522 
L 195.749244 168.439643 
L 193.586924 168.723626 
L 199.540807 160.462996 
L 199.11727 170.636852 
L 197.592692 169.077385 
L 196.112412 173.356264 
L 194.268963 172.718522 
" clip-path="url(#p90b9686ee4)" style="fill: #ff7f0e"/>
    <path d="M 198.408672 170.503326 
L 200.660351 166.575225 
L 198.482987 166.451307 
L 205.871873 159.444805 
L 203.55996 169.361547 
L 202.352676 167.545305 
L 200.100997 171.473405 
L 198.408672 170.503326 
" clip-path="url(#p90b9686ee4)" style="fill: #ff7f0e"/>
    <path d="M 200.881041 166.6957 
L 203.560967 163.046312 
L 201.41143 162.677857 
L 209.5427 156.548487 
L 206.128173 166.141596 
L 205.133215 164.200892 
L 202.453289 167.850279 
L 200.881041 166.6957 
" clip-path="url(#p90b9686ee4)" style="fill: #ff7f0e"/>
    <path d="M 204.25144 161.787299 
L 207.207671 158.357907 
L 205.093394 157.823023 
L 213.67769 152.34611 
L 209.525798 161.643879 
L 208.685139 159.631526 
L 205.728908 163.060918 
L 204.25144 161.787299 
" clip-path="url(#p90b9686ee4)" style="fill: #ff7f0e"/>
    <path d="M 207.975399 156.873448 
L 211.07583 153.573848 
L 208.986408 152.94888 
L 217.797452 147.844743 
L 213.251059 156.956111 
L 212.497381 154.909592 
L 209.396949 158.209192 
L 207.975399 156.873448 
" clip-path="url(#p90b9686ee4)" style="fill: #ff7f0e"/>
    <path d="M 209.440502 155.470942 
L 212.575393 152.204064 
L 210.492645 151.557201 
L 219.356774 146.54582 
L 214.715005 155.608971 
L 213.982846 153.554654 
L 210.847956 156.821532 
L 209.440502 155.470942 
" clip-path="url(#p90b9686ee4)" style="fill: #ff7f0e"/>
    <path d="M 208.595803 156.289429 
L 211.574003 152.879099 
L 209.463206 152.330643 
L 218.082508 146.908989 
L 213.870974 156.179894 
L 213.043259 154.162183 
L 210.065059 157.572513 
L 208.595803 156.289429 
" clip-path="url(#p90b9686ee4)" style="fill: #ff7f0e"/>
    <path d="M 205.163085 160.581543 
L 207.78011 156.886788 
L 205.624576 156.555205 
L 213.649667 150.287459 
L 210.399956 159.937645 
L 209.371903 158.014268 
L 206.754878 161.709023 
L 205.163085 160.581543 
" clip-path="url(#p90b9686ee4)" style="fill: #ff7f0e"/>
    <path d="M 202.304198 164.579172 
L 204.712806 160.745292 
L 202.542229 160.533469 
L 210.208272 153.831342 
L 207.497426 163.646536 
L 206.364538 161.782981 
L 203.95593 165.616861 
L 202.304198 164.579172 
" clip-path="url(#p90b9686ee4)" style="fill: #ff7f0e"/>
    <path d="M 201.556641 165.178832 
L 203.879946 161.292666 
L 201.705218 161.128857 
L 209.221295 154.258973 
L 206.727993 164.131671 
L 205.554204 162.293604 
L 203.230899 166.17977 
L 201.556641 165.178832 
" clip-path="url(#p90b9686ee4)" style="fill: #ff7f0e"/>
    <path d="M 198.044933 164.004837 
L 199.679203 159.782374 
L 197.508018 159.987861 
L 203.757157 151.948272 
L 202.965447 162.100115 
L 201.498346 160.486459 
L 199.864076 164.708922 
L 198.044933 164.004837 
" clip-path="url(#p90b9686ee4)" style="fill: #ff7f0e"/>
    <path d="M 192.092017 162.576195 
L 192.825176 158.108253 
L 190.742342 158.75484 
L 195.209012 149.604126 
L 196.517048 159.702431 
L 194.750078 158.424116 
L 194.016918 162.892059 
L 192.092017 162.576195 
" clip-path="url(#p90b9686ee4)" style="fill: #ff7f0e"/>
    <path d="M 186.450374 162.424166 
L 186.450107 157.89647 
L 184.49952 158.871908 
L 187.424913 149.118509 
L 190.351455 158.871563 
L 188.400753 157.896355 
L 188.40102 162.424051 
L 186.450374 162.424166 
" clip-path="url(#p90b9686ee4)" style="fill: #ff7f0e"/>
    <path d="M 183.596048 161.888439 
L 183.204397 157.377714 
L 181.34543 158.518114 
L 183.416763 148.548345 
L 187.175431 158.011914 
L 185.14773 157.20898 
L 185.539382 161.719705 
L 183.596048 161.888439 
" clip-path="url(#p90b9686ee4)" style="fill: #ff7f0e"/>
    <path d="M 185.061347 156.267491 
L 184.835762 151.745419 
L 182.936133 152.816718 
L 185.372529 142.929823 
L 188.780801 152.525155 
L 186.783985 151.648231 
L 187.00957 156.170304 
L 185.061347 156.267491 
" clip-path="url(#p90b9686ee4)" style="fill: #ff7f0e"/>
    <path d="M 187.661406 149.56505 
L 187.630288 145.037461 
L 185.686392 146.026167 
L 188.545258 136.253061 
L 191.53819 145.985948 
L 189.580887 145.024055 
L 189.612006 149.551644 
L 187.661406 149.56505 
" clip-path="url(#p90b9686ee4)" style="fill: #ff7f0e"/>
    <path d="M 188.522907 146.597435 
L 189.135659 142.111394 
L 187.070965 142.813754 
L 191.28996 133.546241 
L 192.869063 143.605722 
L 191.068358 142.375383 
L 190.455606 146.861424 
L 188.522907 146.597435 
" clip-path="url(#p90b9686ee4)" style="fill: #ff7f0e"/>
    <path d="M 189.954392 136.093405 
L 190.037472 131.566471 
L 188.069259 132.505836 
L 191.173699 122.807941 
L 193.920209 132.613216 
L 191.987789 131.602264 
L 191.904709 136.129198 
L 189.954392 136.093405 
" clip-path="url(#p90b9686ee4)" style="fill: #ff7f0e"/>
    <path d="M 189.818648 131.851227 
L 189.866181 127.323781 
L 187.905404 128.278571 
L 190.933603 118.5566 
L 193.757018 128.340006 
L 191.816719 127.344259 
L 191.769186 131.871706 
L 189.818648 131.851227 
" clip-path="url(#p90b9686ee4)" style="fill: #ff7f0e"/>
    <path d="M 189.63778 125.539544 
L 189.602411 121.011986 
L 187.659444 122.002517 
L 190.509133 112.226731 
L 193.511201 121.956803 
L 191.552997 120.996748 
L 191.588366 125.524306 
L 189.63778 125.539544 
" clip-path="url(#p90b9686ee4)" style="fill: #ff7f0e"/>
    <path d="M 188.975083 121.25068 
L 188.841055 116.724968 
L 186.920136 117.757606 
L 189.556108 107.92204 
L 192.769507 117.584378 
L 190.790845 116.667226 
L 190.924873 121.192938 
L 188.975083 121.25068 
" clip-path="url(#p90b9686ee4)" style="fill: #ff7f0e"/>
    <path d="M 188.312849 116.961803 
L 188.080225 112.440086 
L 186.182266 113.514341 
L 188.60327 103.623666 
L 192.026474 113.213681 
L 190.028295 112.339866 
L 190.260918 116.861583 
L 188.312849 116.961803 
" clip-path="url(#p90b9686ee4)" style="fill: #ff7f0e"/>
    <path d="M 187.651077 112.672901 
L 187.319969 108.157328 
L 185.445872 109.272689 
L 187.650757 99.331603 
L 191.282139 108.84474 
L 189.265392 108.014679 
L 189.5965 112.530252 
L 187.651077 112.672901 
" clip-path="url(#p90b9686ee4)" style="fill: #ff7f0e"/>
    <path d="M 182.898904 105.744009 
L 181.57228 101.415025 
L 179.993017 102.919085 
L 179.932854 92.736596 
L 185.588122 101.204456 
L 183.437315 100.843482 
L 184.763939 105.172466 
L 182.898904 105.744009 
" clip-path="url(#p90b9686ee4)" style="fill: #ff7f0e"/>
    <path d="M 180.529593 103.180551 
L 179.139976 98.871375 
L 177.582816 100.398308 
L 177.374157 90.217778 
L 183.152319 98.602261 
L 180.996477 98.272693 
L 182.386094 102.581868 
L 180.529593 103.180551 
" clip-path="url(#p90b9686ee4)" style="fill: #ff7f0e"/>
    <path d="M 179.83374 101.967898 
L 177.687185 97.981379 
L 176.432087 99.764915 
L 174.384378 89.790267 
L 181.584565 96.990546 
L 179.404678 97.056589 
L 181.551232 101.043108 
L 179.83374 101.967898 
" clip-path="url(#p90b9686ee4)" style="fill: #ff7f0e"/>
    <path d="M 179.901507 101.931998 
L 177.381916 98.170124 
L 176.303958 100.065982 
L 173.307507 90.334178 
L 181.166087 96.809473 
L 179.002626 97.084621 
L 181.522217 100.846495 
L 179.901507 101.931998 
" clip-path="url(#p90b9686ee4)" style="fill: #ff7f0e"/>
    <path d="M 179.997566 101.969521 
L 177.483681 98.203832 
L 176.40285 100.098054 
L 173.421155 90.361719 
L 181.26991 96.848919 
L 179.106034 97.120787 
L 181.619919 100.886476 
L 179.997566 101.969521 
" clip-path="url(#p90b9686ee4)" style="fill: #ff7f0e"/>
    <path d="M 179.969368 101.999881 
L 177.44947 98.238213 
L 176.371666 100.134159 
L 173.37442 90.4026 
L 181.23353 96.877252 
L 179.070091 97.152577 
L 181.589989 100.914245 
L 179.969368 101.999881 
" clip-path="url(#p90b9686ee4)" style="fill: #ff7f0e"/>
    <path d="M 179.921743 101.933279 
L 177.396205 98.175394 
L 176.321247 100.072955 
L 173.309409 90.345903 
L 181.17822 96.80876 
L 179.015196 97.08733 
L 181.540734 100.845214 
L 179.921743 101.933279 
" clip-path="url(#p90b9686ee4)" style="fill: #ff7f0e"/>
    <path d="M 179.945499 101.975384 
L 177.434379 98.20785 
L 176.352158 100.101278 
L 173.377612 90.362757 
L 181.221602 96.855717 
L 179.057527 97.125997 
L 181.568647 100.89353 
L 179.945499 101.975384 
" clip-path="url(#p90b9686ee4)" style="fill: #ff7f0e"/>
    <path d="M 179.755259 101.849824 
L 177.617141 97.858773 
L 176.358273 99.639651 
L 174.331665 89.660694 
L 181.516608 96.876186 
L 179.336586 96.937618 
L 181.474704 100.928669 
L 179.755259 101.849824 
" clip-path="url(#p90b9686ee4)" style="fill: #ff7f0e"/>
    <path d="M 180.728606 103.30206 
L 179.404553 98.97229 
L 177.824396 100.475412 
L 177.77028 90.292888 
L 183.420519 98.764106 
L 181.269927 98.401854 
L 182.59398 102.731625 
L 180.728606 103.30206 
" clip-path="url(#p90b9686ee4)" style="fill: #ff7f0e"/>
    <path d="M 183.554351 106.740223 
L 182.640189 102.305774 
L 180.926639 103.654854 
L 181.823129 93.511727 
L 186.658056 102.473323 
L 184.550662 101.91193 
L 185.464823 106.346379 
L 183.554351 106.740223 
" clip-path="url(#p90b9686ee4)" style="fill: #ff7f0e"/>
    <path d="M 185.66957 109.669198 
L 185.010508 105.189726 
L 183.222609 106.438601 
L 184.69771 96.363345 
L 189.012216 105.58678 
L 186.940377 104.905786 
L 187.599439 109.385258 
L 185.66957 109.669198 
" clip-path="url(#p90b9686ee4)" style="fill: #ff7f0e"/>
    <path d="M 185.312758 110.060796 
L 184.514848 105.603962 
L 182.766612 106.907779 
L 183.927988 96.791559 
L 188.52696 105.8765 
L 186.434964 105.260202 
L 187.232874 109.717036 
L 185.312758 110.060796 
" clip-path="url(#p90b9686ee4)" style="fill: #ff7f0e"/>
    <path d="M 182.710908 110.783167 
L 181.497902 106.420983 
L 179.87986 107.883246 
L 180.0859 97.702663 
L 185.517876 106.315465 
L 183.37724 105.898389 
L 184.590247 110.260573 
L 182.710908 110.783167 
" clip-path="url(#p90b9686ee4)" style="fill: #ff7f0e"/>
    <path d="M 181.274009 111.178 
L 179.907135 106.861556 
L 178.341944 108.380256 
L 178.186975 98.198768 
L 183.920842 106.613605 
L 181.766768 106.272672 
L 183.133642 110.589116 
L 181.274009 111.178 
" clip-path="url(#p90b9686ee4)" style="fill: #ff7f0e"/>
    <path d="M 178.748587 109.273326 
L 176.779047 105.196447 
L 175.446889 106.923185 
L 173.838887 96.868283 
L 180.716155 104.377604 
L 178.53547 104.34792 
L 180.505009 108.424799 
L 178.748587 109.273326 
" clip-path="url(#p90b9686ee4)" style="fill: #ff7f0e"/>
    <path d="M 172.433601 101.91972 
L 169.971007 98.12029 
L 168.864591 99.999682 
L 166.01519 90.223812 
L 173.77526 96.816841 
L 171.607897 97.059343 
L 174.07049 100.858773 
L 172.433601 101.91972 
" clip-path="url(#p90b9686ee4)" style="fill: #ff7f0e"/>
    <path d="M 170.0334 98.80074 
L 167.298266 95.192545 
L 166.332947 97.14816 
L 162.772876 87.608108 
L 170.996451 93.613067 
L 168.852767 94.014181 
L 171.587902 97.622376 
L 170.0334 98.80074 
" clip-path="url(#p90b9686ee4)" style="fill: #ff7f0e"/>
    <path d="M 165.590549 94.288563 
L 162.664076 90.833742 
L 161.806052 92.838752 
L 157.734696 83.505436 
L 166.271323 89.056357 
L 164.1525 89.572944 
L 167.078973 93.027765 
L 165.590549 94.288563 
" clip-path="url(#p90b9686ee4)" style="fill: #ff7f0e"/>
    <path d="M 160.248189 93.73614 
L 156.73799 90.876326 
L 156.262051 93.004647 
L 150.548761 84.575826 
L 159.958291 88.467802 
L 157.97007 89.364044 
L 161.480269 92.223858 
L 160.248189 93.73614 
" clip-path="url(#p90b9686ee4)" style="fill: #ff7f0e"/>
    <path d="M 151.976142 96.092122 
L 147.603162 94.918633 
L 148.039588 97.055407 
L 139.377992 91.70158 
L 149.556294 91.403438 
L 148.10873 93.034643 
L 152.48171 94.208132 
L 151.976142 96.092122 
" clip-path="url(#p90b9686ee4)" style="fill: #ff7f0e"/>
    <path d="M 150.321989 97.019024 
L 145.843711 96.351894 
L 146.520972 98.424956 
L 137.305324 94.093841 
L 147.383222 92.636893 
L 146.131128 94.422539 
L 150.609405 95.08967 
L 150.321989 97.019024 
" clip-path="url(#p90b9686ee4)" style="fill: #ff7f0e"/>
    <path d="M 150.01121 97.318435 
L 145.486232 97.475307 
L 146.528554 99.390989 
L 136.679807 96.804699 
L 146.325801 93.542566 
L 145.418648 95.525833 
L 149.943626 95.368961 
L 150.01121 97.318435 
" clip-path="url(#p90b9686ee4)" style="fill: #ff7f0e"/>
    <path d="M 150.104828 97.209427 
L 145.582177 97.423109 
L 146.648472 99.325551 
L 136.768024 96.863141 
L 146.372293 93.480136 
L 145.490117 95.474637 
L 150.012768 95.260955 
L 150.104828 97.209427 
" clip-path="url(#p90b9686ee4)" style="fill: #ff7f0e"/>
    <path d="M 150.03683 97.209436 
L 145.51414 97.422278 
L 146.580082 99.324918 
L 136.700091 96.860674 
L 146.304988 93.479451 
L 145.422442 95.473789 
L 149.945132 95.260947 
L 150.03683 97.209436 
" clip-path="url(#p90b9686ee4)" style="fill: #ff7f0e"/>
    <path d="M 149.968833 97.209444 
L 145.446103 97.421447 
L 146.511692 99.324285 
L 136.632159 96.858207 
L 146.237683 93.478767 
L 145.354767 95.472941 
L 149.877497 95.260938 
L 149.968833 97.209444 
" clip-path="url(#p90b9686ee4)" style="fill: #ff7f0e"/>
   </g>
   <g id="matplotlib.axis_1">
    <g id="xtick_1">
     <g id="line2d_1">
      <defs>
       <path id="m37b521cf9c" d="M 0 0 
L 0 3.5 
" style="stroke: #000000; stroke-width: 0.8"/>
      </defs>
      <g>
       <use xlink:href="#m37b521cf9c" x="103.104" y="307.584" style="stroke: #000000; stroke-width: 0.8"/>
      </g>
     </g>
     <g id="line2d_2">
      <defs>
       <path id="mfa30d7ee62" d="M 0 0 
L 0 -3.5 
" style="stroke: #000000; stroke-width: 0.8"/>
      </defs>
      <g>
       <use xlink:href="#mfa30d7ee62" x="103.104" y="41.472" style="stroke: #000000; stroke-width: 0.8"/>
      </g>
     </g>
     <g id="text_1">
      <text style="font: 12px 'sans-serif'; text-anchor: middle" x="103.104" y="323.702125" transform="rotate(-0, 103.104, 323.702125)">100</text>
     </g>
    </g>
    <g id="xtick_2">
     <g id="line2d_3">
      <g>
       <use xlink:href="#m37b521cf9c" x="236.16" y="307.584" style="stroke: #000000; stroke-width: 0.8"/>
      </g>
     </g>
     <g id="line2d_4">
      <g>
       <use xlink:href="#mfa30d7ee62" x="236.16" y="41.472" style="stroke: #000000; stroke-width: 0.8"/>
      </g>
     </g>
     <g id="text_2">
      <text style="font: 12px 'sans-serif'; text-anchor: middle" x="236.16" y="323.702125" transform="rotate(-0, 236.16, 323.702125)">0</text>
     </g>
    </g>
    <g id="xtick_3">
     <g id="line2d_5">
      <g>
       <use xlink:href="#m37b521cf9c" x="369.216" y="307.584" style="stroke: #000000; stroke-width: 0.8"/>
      </g>
     </g>
     <g id="line2d_6">
      <g>
       <use xlink:href="#mfa30d7ee62" x="369.216" y="41.472" style="stroke: #000000; stroke-width: 0.8"/>
      </g>
     </g>
     <g id="text_3">
      <text style="font: 12px 'sans-serif'; text-anchor: middle" x="369.216" y="323.702125" transform="rotate(-0, 369.216, 323.702125)">100</text>
     </g>
    </g>
    <g id="text_4">
     <text style="font: 16px 'sans-serif'; text-anchor: middle" x="236.16" y="342.35525" transform="rotate(-0, 236.16, 342.35525)">x (mm)</text>
    </g>
   </g>
   <g id="matplotlib.axis_2">
    <g id="ytick_1">
     <g id="line2d_7">
      <defs>
       <path id="m572f117716" d="M 0 0 
L -3.5 0 
" style="stroke: #000000; stroke-width: 0.8"/>
      </defs>
      <g>
       <use xlink:href="#m572f117716" x="103.104" y="307.584" style="stroke: #000000; stroke-width: 0.8"/>
      </g>
     </g>
     <g id="line2d_8">
      <defs>
       <path id="m2129501eb6" d="M 0 0 
L 3.5 0 
" style="stroke: #000000; stroke-width: 0.8"/>
      </defs>
      <g>
       <use xlink:href="#m2129501eb6" x="369.216" y="307.584" style="stroke: #000000; stroke-width: 0.8"/>
      </g>
     </g>
     <g id="text_5">
      <text style="font: 12px 'sans-serif'; text-anchor: end" x="96.104" y="312.143062" transform="rotate(-0, 96.104, 312.143062)">100</text>
     </g>
    </g>
    <g id="ytick_2">
     <g id="line2d_9">
      <g>
       <use xlink:href="#m572f117716" x="103.104" y="174.528" style="stroke: #000000; stroke-width: 0.8"/>
      </g>
     </g>
     <g id="line2d_10">
      <g>
       <use xlink:href="#m2129501eb6" x="369.216" y="174.528" style="stroke: #000000; stroke-width: 0.8"/>
      </g>
     </g>
     <g id="text_6">
      <text style="font: 12px 'sans-serif'; text-anchor: end" x="96.104" y="179.087063" transform="rotate(-0, 96.104, 179.087063)">0</text>
     </g>
    </g>
    <g id="ytick_3">
     <g id="line2d_11">
      <g>
       <use xlink:href="#m572f117716" x="103.104" y="41.472" style="stroke: #000000; stroke-width: 0.8"/>
      </g>
     </g>
     <g id="line2d_12">
      <g>
       <use xlink:href="#m2129501eb6" x="369.216" y="41.472" style="stroke: #000000; stroke-width: 0.8"/>
      </g>
     </g>
     <g id="text_7">
      <text style="font: 12px 'sans-serif'; text-anchor: end" x="96.104" y="46.031063" transform="rotate(-0, 96.104, 46.031063)">100</text>
     </g>
    </g>
    <g id="text_8">
     <text style="font: 16px 'sans-serif'; text-anchor: middle" x="55.815875" y="174.528" transform="rotate(-90, 55.815875, 174.528)">y (mm)</text>
    </g>
   </g>
   <g id="patch_3">
    <path d="M 103.104 307.584 
L 103.104 41.472 
" style="fill: none; stroke: #000000; stroke-width: 0.8; stroke-linejoin: miter; stroke-linecap: square"/>
   </g>
   <g id="patch_4">
    <path d="M 369.216 307.584 
L 369.216 41.472 
" style="fill: none; stroke: #000000; stroke-width: 0.8; stroke-linejoin: miter; stroke-linecap: square"/>
   </g>
   <g id="patch_5">
    <path d="M 103.104 307.584 
L 369.216 307.584 
" style="fill: none; stroke: #000000; stroke-width: 0.8; stroke-linejoin: miter; stroke-linecap: square"/>
   </g>
   <g id="patch_6">
    <path d="M 103.104 41.472 
L 369.216 41.472 
" style="fill: none; stroke: #000000; stroke-width: 0.8; stroke-linejoin: miter; stroke-linecap: square"/>
   </g>
   <g id="legend_1">
    <g id="patch_7">
     <path d="M 113.904 276.674625 
L 137.904 276.674625 
L 137.904 268.274625 
L 113.904 268.274625 
z
" style="fill: #1f77b4"/>
    </g>
    <g id="text_9">
     <text style="font: 12px 'sans-serif'; text-anchor: start" x="147.504" y="276.674625" transform="rotate(-0, 147.504, 276.674625)">sim</text>
    </g>
    <g id="patch_8">
     <path d="M 113.904 294.288375 
L 137.904 294.288375 
L 137.904 285.888375 
L 113.904 285.888375 
z
" style="fill: #ff7f0e"/>
    </g>
    <g id="text_10">
     <text style="font: 12px 'sans-serif'; text-anchor: start" x="147.504" y="294.288375" transform="rotate(-0, 147.504, 294.288375)">exp</text>
    </g>
   </g>
  </g>
 </g>
 <defs>
  <clipPath id="p90b9686ee4">
   <rect x="103.104" y="41.472" width="266.112" height="266.112"/>
  </clipPath>
 </defs>
</svg>
